<?xml version="1.0" standalone="no"?>
<!DOCTYPE svg PUBLIC "-//W3C//DTD SVG 20010904//EN"
 "http://www.w3.org/TR/2001/REC-SVG-20010904/DTD/svg10.dtd">
<svg version="1.0" xmlns="http://www.w3.org/2000/svg"
 width="1400.000000pt" height="656.000000pt" viewBox="0 0 1400.000000 656.000000"
 preserveAspectRatio="xMidYMid meet">

<g transform="translate(0.000000,656.000000) scale(0.100000,-0.100000)"
fill="#000000" stroke="none">
<path d="M5485 4570 c4 -6 -15 -10 -49 -10 -31 0 -56 -4 -56 -10 0 -5 -9 -10
-20 -10 -11 0 -20 -4 -20 -10 0 -5 -8 -10 -18 -10 -10 0 -24 -9 -32 -20 -8
-11 -20 -20 -27 -20 -17 0 -123 -106 -123 -123 0 -7 -9 -19 -20 -27 -11 -8
-20 -21 -20 -30 0 -9 -9 -22 -20 -30 -14 -10 -20 -26 -20 -52 0 -21 -4 -38
-10 -38 -5 0 -10 -18 -10 -40 0 -22 -4 -40 -10 -40 -6 0 -10 -30 -10 -70 0
-40 4 -70 10 -70 6 0 10 -22 10 -50 0 -27 5 -50 10 -50 6 0 10 -18 10 -40 0
-22 5 -40 10 -40 6 0 10 -8 10 -18 0 -10 9 -24 20 -32 12 -9 20 -26 20 -45 0
-16 4 -25 8 -19 5 9 10 8 19 -1 10 -11 10 -15 0 -18 -7 -3 -2 -6 11 -6 13 -1
22 -7 22 -17 0 -8 7 -22 15 -30 9 -10 15 -11 15 -4 0 7 6 6 15 -4 8 -8 15 -22
15 -30 0 -9 8 -16 20 -16 11 0 20 -4 20 -10 0 -5 9 -10 20 -10 11 0 20 -4 20
-10 0 -5 9 -10 20 -10 11 0 20 -4 20 -10 0 -5 14 -10 30 -10 17 0 30 -4 30
-10 0 -5 14 -10 30 -10 17 0 30 -4 30 -9 0 -6 124 -10 316 -11 174 0 320 -2
323 -4 3 -2 15 2 26 10 16 12 -19 14 -276 16 -175 1 -262 4 -214 8 79 6 79 6
-37 8 -71 1 -118 6 -118 12 0 6 -25 10 -56 10 -34 0 -53 4 -49 10 3 6 -2 10
-12 10 -10 0 -25 9 -33 20 -8 11 -25 20 -38 20 -13 0 -20 4 -17 10 3 6 -1 10
-10 10 -21 0 -125 105 -125 127 0 15 -2 16 -10 3 -8 -13 -10 -12 -10 3 0 10
-7 25 -15 34 -8 8 -13 19 -10 24 4 5 1 9 -4 9 -6 0 -11 9 -11 20 0 11 -4 20
-10 20 -5 0 -10 23 -10 50 0 28 -4 50 -10 50 -6 0 -10 37 -10 90 0 53 4 90 10
90 6 0 10 23 10 50 0 28 5 50 10 50 6 0 10 9 10 20 0 11 5 20 10 20 6 0 10 9
10 20 0 11 5 20 10 20 6 0 10 7 10 15 0 17 144 165 161 165 6 0 17 7 26 15 8
8 19 12 25 9 7 -4 8 -2 4 4 -4 7 -1 12 8 12 9 0 16 4 16 9 0 9 33 17 118 27
l42 6 0 -107 c0 -114 -8 -135 -50 -135 -12 0 -35 -13 -50 -30 -15 -16 -33 -30
-40 -30 -16 0 -40 -26 -40 -44 0 -9 -4 -16 -10 -16 -5 0 -10 -9 -10 -21 0 -11
-4 -17 -10 -14 -6 4 -10 -5 -10 -19 0 -14 -4 -26 -10 -26 -6 0 -10 -33 -10
-80 0 -47 4 -80 10 -80 6 0 10 -9 10 -19 0 -10 7 -21 15 -25 8 -3 12 -12 9
-21 -3 -8 -1 -15 5 -15 6 0 11 -7 11 -15 0 -18 44 -65 61 -65 6 0 24 -13 39
-30 25 -26 35 -30 84 -30 32 0 56 -4 56 -10 0 -7 36 -9 108 -5 150 7 212 15
212 26 0 5 -80 9 -190 9 -120 0 -190 4 -190 10 0 6 -16 10 -35 10 -30 0 -45 9
-90 55 -30 30 -55 61 -55 70 0 8 -4 15 -10 15 -6 0 -10 42 -10 106 0 105 0
106 30 134 17 15 30 33 30 40 0 16 25 40 42 40 8 0 20 9 28 20 9 13 26 20 48
20 58 0 62 12 62 174 l0 146 -51 0 c-31 0 -48 -4 -44 -10z"/>
<path d="M11650 4576 c0 -2 7 -7 16 -10 8 -3 12 -2 9 4 -6 10 -25 14 -25 6z"/>
<path d="M11871 4563 c7 -7 14 -11 18 -8 3 4 11 -9 17 -27 l12 -33 1 42 c1 40
0 42 -29 41 -24 -1 -28 -4 -19 -15z"/>
<path d="M11640 4550 c0 -6 7 -10 15 -10 8 0 15 2 15 4 0 2 -7 6 -15 10 -8 3
-15 1 -15 -4z"/>
<path d="M11906 4472 c-7 -12 -4 -806 4 -927 4 -55 7 133 8 418 1 284 -1 517
-3 517 -2 0 -6 -4 -9 -8z"/>
<path d="M3913 3685 c-7 -8 -13 -16 -13 -19 0 -2 71 -5 158 -5 91 -1 158 -6
160 -11 2 -6 10 -10 19 -10 23 0 43 -26 43 -57 0 -22 2 -25 10 -13 6 10 10
-216 10 -647 0 -436 -3 -663 -10 -663 -5 0 -10 -8 -10 -18 0 -10 -9 -24 -20
-32 -14 -10 -16 -16 -7 -22 6 -4 -23 -8 -66 -8 -43 0 -86 -4 -96 -10 -10 -5
-50 -10 -90 -12 -145 -5 -90 -18 77 -18 l173 0 44 45 c30 29 45 53 45 70 0 14
5 25 10 25 7 0 10 220 10 640 0 420 -3 640 -10 640 -5 0 -10 11 -10 25 0 29
-59 95 -85 95 -8 0 -15 5 -15 10 0 6 -59 10 -157 10 -124 -1 -161 -4 -170 -15z"/>
<path d="M5773 3473 c9 -2 25 -2 35 0 9 3 1 5 -18 5 -19 0 -27 -2 -17 -5z"/>
<path d="M6150 3429 c0 -5 5 -7 10 -4 6 3 10 8 10 11 0 2 -4 4 -10 4 -5 0 -10
-5 -10 -11z"/>
<path d="M6190 3430 c8 -5 20 -10 25 -10 6 0 3 5 -5 10 -8 5 -19 10 -25 10 -5
0 -3 -5 5 -10z"/>
<path d="M11905 3415 c-4 -16 -35 -56 -68 -88 -32 -32 -57 -61 -53 -64 3 -3
14 4 25 15 10 12 24 22 30 22 16 0 41 25 41 40 0 6 5 8 10 5 6 -3 10 3 10 14
0 10 5 21 11 23 6 2 9 17 7 33 l-4 30 -9 -30z"/>
<path d="M6294 3372 c-8 -5 -7 -11 4 -22 14 -13 15 -12 9 2 -3 9 -1 19 6 22 7
2 8 5 2 5 -5 0 -15 -3 -21 -7z"/>
<path d="M6340 3310 c0 -5 5 -10 11 -10 5 0 7 5 4 10 -3 6 -8 10 -11 10 -2 0
-4 -4 -4 -10z"/>
<path d="M11760 3250 c0 -5 10 -10 23 -10 18 0 19 2 7 10 -19 13 -30 13 -30 0z"/>
<path d="M11690 3190 c19 -13 30 -13 30 0 0 6 -10 10 -22 10 -19 0 -20 -2 -8
-10z"/>
<path d="M11660 3164 c0 -8 -4 -14 -10 -14 -5 0 -10 -7 -10 -15 0 -21 7 -19
35 10 30 29 30 30 5 32 -11 1 -20 -4 -20 -13z"/>
<path d="M6367 3063 c-4 -3 -7 -11 -7 -17 0 -6 5 -5 12 2 6 6 9 14 7 17 -3 3
-9 2 -12 -2z"/>
<path d="M6340 3043 c0 -13 5 -23 10 -23 13 0 13 11 0 30 -8 12 -10 11 -10 -7z"/>
<path d="M6301 2993 c4 -21 -2 -33 -17 -33 -15 0 -44 -23 -44 -34 0 -15 33 -4
55 19 27 26 31 40 15 50 -6 4 -10 3 -9 -2z"/>
<path d="M6195 2910 c-3 -5 -17 -10 -31 -10 -13 0 -24 -3 -25 -7 0 -5 -3 -17
-5 -28 -3 -11 -7 -68 -11 -127 -5 -93 -3 -109 12 -124 11 -12 19 -14 24 -6 3
6 18 15 31 21 l25 10 -27 0 c-26 1 -28 4 -29 44 -1 36 -2 38 -9 17 -7 -20 -8
-16 -9 23 -1 26 4 47 9 47 6 0 10 8 10 18 0 14 -2 15 -10 2 -8 -12 -10 -9 -10
13 0 32 58 97 87 97 15 0 16 2 3 10 -19 12 -27 12 -35 0z"/>
<path d="M11960 2889 c0 -5 -7 -9 -15 -9 -24 0 -168 -149 -161 -166 4 -11 27
6 84 63 43 43 88 84 100 91 29 16 377 18 366 1 -5 -8 -1 -8 14 0 26 14 69 14
77 1 4 -6 94 -10 236 -10 186 0 233 -3 245 -14 10 -10 14 -39 14 -96 0 -57 -4
-86 -14 -96 -11 -11 -45 -14 -141 -14 -82 0 -124 -4 -120 -10 4 -7 -103 -11
-312 -12 -367 -2 -360 -2 -369 -11 -4 -3 212 -7 480 -7 391 0 490 2 500 13 17
17 23 247 7 247 -6 0 -11 9 -11 20 0 21 -3 21 -490 19 -270 -1 -490 -6 -490
-10z"/>
<path d="M12383 2863 c9 -2 23 -2 30 0 6 3 -1 5 -18 5 -16 0 -22 -2 -12 -5z"/>
<path d="M6151 2744 c0 -11 3 -14 6 -6 3 7 2 16 -1 19 -3 4 -6 -2 -5 -13z"/>
<path d="M6460 2750 c0 -5 5 -10 10 -10 6 0 10 5 10 10 0 6 -4 10 -10 10 -5 0
-10 -4 -10 -10z"/>
<path d="M6401 2703 c0 -11 3 -13 6 -5 2 6 10 9 15 6 7 -4 8 -2 4 4 -11 18
-26 14 -25 -5z"/>
<path d="M1233 2645 c-7 -8 -13 -21 -13 -30 0 -8 -5 -15 -10 -15 -6 0 -9 -13
-8 -30 1 -16 6 -30 10 -30 4 0 8 -27 8 -60 0 -33 4 -60 10 -60 6 0 10 -13 10
-29 0 -16 4 -31 9 -33 6 -1 11 -34 12 -71 1 -37 6 -70 11 -73 4 -3 8 -34 8
-70 0 -35 4 -64 9 -64 9 0 18 -40 27 -120 3 -25 9 -54 14 -65 12 -28 21 -78
27 -154 3 -35 8 -59 11 -53 4 5 37 12 75 14 66 5 103 16 50 16 -15 0 -29 5
-31 11 -2 6 -12 11 -23 11 -15 0 -19 7 -19 31 0 17 4 28 10 24 6 -4 10 22 10
69 0 44 4 76 10 76 6 0 10 24 10 54 0 30 5 58 10 61 6 3 10 37 10 76 0 39 4
69 10 69 6 0 10 9 10 20 0 13 -7 20 -19 20 -20 0 -25 -21 -37 -187 -3 -40 -10
-73 -15 -73 -5 0 -9 -13 -9 -30 0 -16 -4 -30 -10 -30 -5 0 -10 -7 -10 -16 0
-11 -5 -14 -16 -10 -9 3 -18 6 -20 6 -2 0 -4 23 -4 50 0 28 -4 50 -10 50 -5 0
-10 14 -10 30 0 17 -4 30 -10 30 -6 0 -10 30 -10 70 0 40 -4 70 -10 70 -6 0
-10 33 -10 80 0 47 -4 80 -10 80 -5 0 -10 24 -10 53 0 37 -3 48 -10 37 -7 -11
-10 -4 -10 28 0 23 -4 42 -10 42 -5 0 -10 22 -10 49 l0 49 58 6 c193 19 212
32 50 34 -79 2 -106 -1 -115 -13z"/>
<path d="M6280 2649 c0 -5 5 -7 10 -4 6 3 10 8 10 11 0 2 -4 4 -10 4 -5 0 -10
-5 -10 -11z"/>
<path d="M11713 2645 c-18 -19 -16 -30 2 -15 8 6 19 9 24 5 7 -3 8 0 5 9 -7
19 -15 20 -31 1z"/>
<path d="M1500 2258 c0 -17 4 -19 23 -13 12 5 52 10 90 12 37 3 67 8 67 12 0
5 -40 9 -90 9 -85 1 -90 0 -90 -20z"/>
<path d="M1690 2275 c0 -2 10 -10 23 -16 20 -11 21 -11 8 4 -13 16 -31 23 -31
12z"/>
<path d="M6411 1890 c0 -33 1 -34 11 -12 8 17 8 26 0 34 -9 9 -12 4 -11 -22z"/>
<path d="M6412 1730 c0 -14 2 -19 5 -12 2 6 2 18 0 25 -3 6 -5 1 -5 -13z"/>
</g>
</svg>
