{
  "accessors": [
    {
      "bufferView": 2,
      "componentType": 5126,
      "count": 7585,
      "max": [
        33.30099868774414,
        1960.6680908203125,
        31.550384521484375
      ],
      "min": [
        -33.30099868774414,
        31.357555389404297,
        -35.051612854003906
      ],
      "type": "VEC3"
    },
    {
      "bufferView": 2,
      "byteOffset": 91020,
      "componentType": 5126,
      "count": 7585,
      "max": [
        1.0,
        1.0,
        1.0
      ],
      "min": [
        -1.0,
        -1.0,
        -1.0
      ],
      "type": "VEC3"
    },
    {
      "bufferView": 3,
      "componentType": 5126,
      "count": 7585,
      "max": [
        1.0,
        1.0,
        1.0,
        1.0
      ],
      "min": [
        -1.0,
        -1.0,
        -1.0,
        1.0
      ],
      "type": "VEC4"
    },
    {
      "bufferView": 1,
      "componentType": 5126,
      "count": 7585,
      "max": [
        0.9950248599052429,
        0.9983319640159607
      ],
      "min": [
        0.0016680163098499179,
        0.01062774658203125
      ],
      "type": "VEC2"
    },
    {
      "bufferView": 0,
      "componentType": 5125,
      "count": 41592,
      "type": "SCALAR"
    },
    {
      "bufferView": 2,
      "byteOffset": 182040,
      "componentType": 5126,
      "count": 4624,
      "max": [
        52.141212463378906,
        141.66854858398438,
        50.39059829711914
      ],
      "min": [
        -52.141212463378906,
        0.037886738777160645,
        -53.89182662963867
      ],
      "type": "VEC3"
    },
    {
      "bufferView": 2,
      "byteOffset": 237528,
      "componentType": 5126,
      "count": 4624,
      "max": [
        0.9999998211860657,
        0.9999997615814209,
        0.9999998211860657
      ],
      "min": [
        -0.9999998211860657,
        -0.9995486736297607,
        -0.9999999403953552
      ],
      "type": "VEC3"
    },
    {
      "bufferView": 3,
      "byteOffset": 121360,
      "componentType": 5126,
      "count": 4624,
      "max": [
        1.0,
        1.0,
        1.0,
        1.0
      ],
      "min": [
        -1.0,
        -0.9999994039535522,
        -1.0,
        1.0
      ],
      "type": "VEC4"
    },
    {
      "bufferView": 1,
      "byteOffset": 60680,
      "componentType": 5126,
      "count": 4624,
      "max": [
        0.9917587041854858,
        0.9983319640159607
      ],
      "min": [
        0.0016680163098499179,
        0.5185078978538513
      ],
      "type": "VEC2"
    },
    {
      "bufferView": 0,
      "byteOffset": 166368,
      "componentType": 5125,
      "count": 25698,
      "type": "SCALAR"
    }
  ],
  "asset": {
    "extras": {
      "author": "Wizard of Graphic (https://sketchfab.com/miksherstud)",
      "license": "CC-BY-4.0 (http://creativecommons.org/licenses/by/4.0/)",
      "source": "https://sketchfab.com/3d-models/bulb-53f9dab8e41e4ebabb3ca78bc2a4d683",
      "title": "Bulb"
    },
    "generator": "Sketchfab-12.93.0",
    "version": "2.0"
  },
  "bufferViews": [
    {
      "buffer": 0,
      "byteLength": 269160,
      "name": "floatBufferViews",
      "target": 34963
    },
    {
      "buffer": 0,
      "byteLength": 97672,
      "byteOffset": 269160,
      "byteStride": 8,
      "name": "floatBufferViews",
      "target": 34962
    },
    {
      "buffer": 0,
      "byteLength": 293016,
      "byteOffset": 366832,
      "byteStride": 12,
      "name": "floatBufferViews",
      "target": 34962
    },
    {
      "buffer": 0,
      "byteLength": 195344,
      "byteOffset": 659848,
      "byteStride": 16,
      "name": "floatBufferViews",
      "target": 34962
    }
  ],
  "buffers": [
    {
      "byteLength": 855192,
      "uri": "scene.bin"
    }
  ],
  "extensionsUsed": [
    "KHR_materials_transmission"
  ],
  "images": [
    {
      "uri": "textures/lamp_baseColor.png"
    },
    {
      "uri": "textures/lamp_metallicRoughness.png"
    },
    {
      "uri": "textures/lamp_emissive.png"
    },
    {
      "uri": "textures/lamp_normal.png"
    },
    {
      "uri": "textures/glass_baseColor.png"
    },
    {
      "uri": "textures/glass_transmission.png"
    }
  ],
  "materials": [
    {
      "doubleSided": true,
      "emissiveFactor": [
        1.0,
        1.0,
        1.0
      ],
      "emissiveTexture": {
        "index": 2
      },
      "name": "lamp",
      "normalTexture": {
        "index": 3
      },
      "pbrMetallicRoughness": {
        "baseColorTexture": {
          "index": 0
        },
        "metallicRoughnessTexture": {
          "index": 1
        }
      }
    },
    {
      "alphaMode": "BLEND",
      "doubleSided": true,
      "extensions": {
        "KHR_materials_transmission": {
          "transmissionFactor": 1.0,
          "transmissionTexture": {
            "index": 5
          }
        }
      },
      "name": "glass",
      "normalTexture": {
        "index": 3
      },
      "pbrMetallicRoughness": {
        "baseColorTexture": {
          "index": 4
        },
        "metallicRoughnessTexture": {
          "index": 1
        }
      }
    }
  ],
  "meshes": [
    {
      "name": "ALL_LAMP_lamp_0",
      "primitives": [
        {
          "attributes": {
            "NORMAL": 1,
            "POSITION": 0,
            "TANGENT": 2,
            "TEXCOORD_0": 3
          },
          "indices": 4,
          "material": 0,
          "mode": 4
        }
      ]
    },
    {
      "name": "ALL_LAMP_glass_0",
      "primitives": [
        {
          "attributes": {
            "NORMAL": 6,
            "POSITION": 5,
            "TANGENT": 7,
            "TEXCOORD_0": 8
          },
          "indices": 9,
          "material": 1,
          "mode": 4
        }
      ]
    }
  ],
  "nodes": [
    {
      "children": [
        1
      ],
      "matrix": [
        1.0,
        0.0,
        0.0,
        0.0,
        0.0,
        2.220446049250313e-16,
        -1.0,
        0.0,
        0.0,
        1.0,
        2.220446049250313e-16,
        0.0,
        0.0,
        0.0,
        0.0,
        1.0
      ],
      "name": "Sketchfab_model"
    },
    {
      "children": [
        2
      ],
      "matrix": [
        0.009999999776482582,
        0.0,
        0.0,
        0.0,
        0.0,
        0.0,
        0.009999999776482582,
        0.0,
        0.0,
        -0.009999999776482582,
        0.0,
        0.0,
        0.0,
        0.0,
        0.0,
        1.0
      ],
      "name": "BLOB_LAMP.fbx"
    },
    {
      "children": [
        3
      ],
      "name": "RootNode"
    },
    {
      "children": [
        4,
        5
      ],
      "matrix": [
        0.15000000596046448,
        0.0,
        0.0,
        0.0,
        0.0,
        0.15000000596046448,
        0.0,
        0.0,
        0.0,
        0.0,
        0.15000000596046448,
        0.0,
        0.0,
        0.0,
        0.0,
        1.0
      ],
      "name": "ALL_LAMP"
    },
    {
      "mesh": 0,
      "name": "ALL_LAMP_lamp_0"
    },
    {
      "mesh": 1,
      "name": "ALL_LAMP_glass_0"
    }
  ],
  "samplers": [
    {
      "magFilter": 9729,
      "minFilter": 9987,
      "wrapS": 10497,
      "wrapT": 10497
    }
  ],
  "scene": 0,
  "scenes": [
    {
      "name": "Sketchfab_Scene",
      "nodes": [
        0
      ]
    }
  ],
  "textures": [
    {
      "sampler": 0,
      "source": 0
    },
    {
      "sampler": 0,
      "source": 1
    },
    {
      "sampler": 0,
      "source": 2
    },
    {
      "sampler": 0,
      "source": 3
    },
    {
      "sampler": 0,
      "source": 4
    },
    {
      "sampler": 0,
      "source": 5
    }
  ]
}
